<svg width="162" height="46" viewBox="0 0 162 46" fill="none" xmlns="http://www.w3.org/2000/svg">
<path d="M125.562 41.3788C125.765 41.556 126.037 41.7017 126.377 41.8161C126.717 41.9304 127.04 41.9875 127.346 41.9875C128.277 41.9875 128.743 41.656 128.743 40.993C128.743 40.8073 128.693 40.6401 128.593 40.4915C128.493 40.3429 128.356 40.2114 128.181 40.0971C128.007 39.9828 127.68 39.8071 127.2 39.5699C126.534 39.2384 126.095 38.9312 125.884 38.6483C125.672 38.3625 125.567 38.0367 125.567 37.6709C125.567 37.1194 125.788 36.6822 126.231 36.3592C126.674 36.0363 127.233 35.8749 127.907 35.8749C128.567 35.8749 129.052 35.9549 129.36 36.1149V37.0494C128.96 36.7722 128.454 36.6336 127.843 36.6336C127.437 36.6336 127.106 36.7193 126.848 36.8908C126.594 37.0594 126.467 37.2951 126.467 37.5981C126.467 37.8667 126.555 38.0853 126.733 38.2539C126.91 38.4225 127.294 38.6526 127.886 38.944C128.537 39.2555 128.993 39.567 129.253 39.8785C129.513 40.19 129.643 40.5401 129.643 40.9287C129.643 41.5117 129.432 41.9589 129.009 42.2704C128.586 42.5819 127.999 42.7377 127.247 42.7377C126.984 42.7377 126.677 42.7005 126.325 42.6262C125.977 42.5548 125.722 42.4648 125.562 42.3562V41.3788ZM134.511 42.5791C134.328 42.6791 134.081 42.7291 133.77 42.7291C132.921 42.7291 132.497 42.259 132.497 41.3188V38.5797H131.682V37.8853H132.497V36.745L133.333 36.4793V37.8853H134.511V38.5797H133.333V41.1688C133.333 41.4803 133.385 41.7032 133.491 41.8375C133.597 41.9718 133.773 42.039 134.018 42.039C134.207 42.039 134.371 41.9861 134.511 41.8804V42.5791ZM137.026 38.2153C137.498 37.921 138.042 37.7738 138.659 37.7738C139.802 37.7738 140.374 38.3739 140.374 39.5742V42.6262H139.542V41.8932H139.521C139.192 42.4562 138.708 42.7377 138.068 42.7377C137.608 42.7377 137.242 42.6134 136.97 42.3647C136.699 42.1161 136.563 41.7803 136.563 41.3574C136.563 40.4715 137.088 39.9557 138.136 39.8099L139.542 39.6128C139.542 38.8383 139.222 38.4511 138.582 38.4511C138.014 38.4511 137.495 38.6426 137.026 39.0255V38.2153ZM138.432 40.3972C138.044 40.4486 137.775 40.5458 137.626 40.6887C137.481 40.8316 137.408 41.0316 137.408 41.2888C137.408 41.5146 137.488 41.6989 137.648 41.8418C137.808 41.9847 138.019 42.0561 138.282 42.0561C138.648 42.0561 138.949 41.9275 139.187 41.6703C139.424 41.4131 139.542 41.0902 139.542 40.7015V40.2472L138.432 40.3972ZM144.012 41.9575V42.6262H143.172V35.6091H144.012V38.704H144.029C144.401 38.0839 144.944 37.7738 145.658 37.7738C146.252 37.7738 146.724 37.9839 147.073 38.4039C147.424 38.8212 147.6 39.3927 147.6 40.1186C147.6 40.9187 147.403 41.556 147.008 42.0304C146.617 42.5019 146.094 42.7377 145.439 42.7377C144.822 42.7377 144.352 42.4776 144.029 41.9575H144.012ZM144.008 40.6758C144.008 41.0588 144.132 41.3831 144.381 41.6489C144.629 41.9118 144.941 42.0432 145.315 42.0432C145.761 42.0432 146.11 41.8718 146.361 41.5289C146.612 41.1859 146.738 40.7115 146.738 40.1057C146.738 39.6056 146.621 39.2084 146.387 38.914C146.152 38.6168 145.832 38.4682 145.427 38.4682C145.015 38.4682 144.675 38.6154 144.406 38.9098C144.141 39.2041 144.008 39.5785 144.008 40.0328V40.6758ZM150.179 42.6262V35.6091H151.019V42.6262H150.179ZM157.791 40.4701H154.473C154.487 40.9759 154.626 41.3674 154.889 41.6446C155.151 41.9189 155.519 42.0561 155.99 42.0561C156.522 42.0561 157.009 41.8861 157.452 41.546V42.2962C157.035 42.5905 156.482 42.7377 155.793 42.7377C155.107 42.7377 154.571 42.5205 154.186 42.0861C153.803 41.6517 153.611 41.0488 153.611 40.2772C153.611 39.5513 153.821 38.9526 154.241 38.4811C154.664 38.0096 155.189 37.7738 155.814 37.7738C156.435 37.7738 156.919 37.9739 157.268 38.3739C157.616 38.7712 157.791 39.3284 157.791 40.0457V40.4701ZM156.95 39.7971C156.948 39.3684 156.846 39.0369 156.646 38.8026C156.446 38.5683 156.165 38.4511 155.802 38.4511C155.467 38.4511 155.177 38.5754 154.931 38.824C154.689 39.0726 154.536 39.397 154.473 39.7971H156.95Z" fill="white"/>
<path d="M85.502 8.74463H99.4286L95.379 11.4904H85.502V8.74463Z" fill="url(#paint0_linear_696_12124)"/>
<path d="M57.2445 8.31335V31.8297H54.2082V8.31335H57.2445ZM82.5523 31.8297H78.9543L67.1278 13.5358C66.7938 13.0197 66.5256 12.5085 66.3231 12.0025H66.2321C66.313 12.5288 66.3535 13.6269 66.3535 15.2969V31.8297H63.3475V8.31335H67.1581L78.6658 26.2884C79.2124 27.1386 79.5362 27.6801 79.6374 27.9128H79.6982C79.597 27.2449 79.5464 26.1012 79.5464 24.4818V8.31335H82.5523V31.8297Z" fill="url(#paint1_linear_696_12124)"/>
<path d="M118.623 30.2205C116.275 31.5564 113.623 32.2244 110.667 32.2244C107.267 32.2244 104.524 31.1516 102.439 29.0059C100.364 26.8501 99.3268 23.9757 99.3268 20.3828C99.3268 16.7493 100.476 13.7636 102.773 11.4256C105.07 9.08762 108.016 7.91863 111.609 7.91863C114.149 7.91863 116.3 8.32348 118.061 9.13316V12.4124C116.178 11.2282 113.937 10.6361 111.335 10.6361C108.775 10.6361 106.665 11.5116 105.005 13.2626C103.345 15.0135 102.515 17.3211 102.515 20.1854C102.515 23.1306 103.279 25.4231 104.807 27.0627C106.336 28.7023 108.4 29.5221 111.001 29.5221C112.793 29.5221 114.316 29.178 115.571 28.4898V22.1286H110.47V19.4415H118.623V30.2205ZM132.605 17.9841C132.109 17.6298 131.426 17.4527 130.555 17.4527C129.402 17.4527 128.45 17.9942 127.701 19.0771C126.952 20.15 126.578 21.5669 126.578 23.328V31.8297H123.602V15.0388H126.578V18.4547H126.639C127.489 15.9851 128.956 14.7504 131.041 14.7504C131.719 14.7504 132.241 14.8263 132.605 14.9781V17.9841ZM135.11 9.11798C135.11 8.59168 135.287 8.15142 135.641 7.79718C136.006 7.43282 136.451 7.25064 136.977 7.25064C137.514 7.25064 137.964 7.42776 138.328 7.782C138.703 8.13624 138.89 8.58156 138.89 9.11798C138.89 9.64428 138.703 10.0845 138.328 10.4388C137.964 10.7829 137.514 10.955 136.977 10.955C136.441 10.955 135.995 10.7829 135.641 10.4388C135.287 10.0845 135.11 9.64428 135.11 9.11798ZM135.459 31.8297V15.0388H138.435V31.8297H135.459ZM158.338 31.8297H155.362V29.0363H155.301C154.077 31.1617 152.174 32.2244 149.593 32.2244C147.468 32.2244 145.778 31.4704 144.522 29.9624C143.267 28.4442 142.64 26.3997 142.64 23.829C142.64 21.0558 143.348 18.8342 144.765 17.1642C146.182 15.4841 148.035 14.6441 150.322 14.6441C152.609 14.6441 154.269 15.5348 155.301 17.3161H155.362V6.97737H158.338V31.8297ZM155.377 21.8402C155.377 20.4941 154.932 19.3706 154.041 18.4699C153.161 17.559 152.073 17.1035 150.777 17.1035C149.198 17.1035 147.954 17.6956 147.043 18.8798C146.132 20.0538 145.676 21.658 145.676 23.6924C145.676 25.5648 146.112 27.0475 146.982 28.1406C147.862 29.2235 149.031 29.765 150.489 29.765C151.926 29.765 153.1 29.2337 154.011 28.1709C154.922 27.0981 155.377 25.7672 155.377 24.1782V21.8402Z" fill="white"/>
<path fill-rule="evenodd" clip-rule="evenodd" d="M93.7067 31.8297H97.2896L92.8869 24.7854C92.1379 23.5608 91.5256 22.6954 91.0499 22.1894C90.5844 21.6833 90.0277 21.2937 89.3799 21.0204V20.9445C92.8616 19.9729 94.6024 17.8575 94.6024 14.5986C94.6024 12.6148 93.9547 11.0714 92.6592 9.96815C91.3637 8.86495 89.5722 8.31335 87.2849 8.31335H80.1191V31.8297H81.6162V8.42073H86.1505V10.9701H86.7839C88.2919 10.9701 89.4407 11.3143 90.2301 12.0025C91.0196 12.6907 91.4143 13.6472 91.4143 14.8718C91.4143 16.1876 90.9791 17.2503 90.1087 18.06C89.2484 18.8697 88.1249 19.2745 86.7383 19.2745H86.1505V22.0012C86.7148 22.1035 87.2195 22.3181 87.6644 22.6448C88.3122 23.1104 89.0257 23.996 89.805 25.3016L93.7067 31.8297Z" fill="url(#paint2_linear_696_12124)"/>
<circle cx="22.9465" cy="22.9465" r="22.9465" fill="url(#paint3_linear_696_12124)"/>
<path fill-rule="evenodd" clip-rule="evenodd" d="M17.2955 9.60254H14.2012V35.6476H17.2955V9.60254ZM20.1651 24.6877C21.0863 24.7177 21.8839 24.9801 22.5578 25.4751C23.2752 25.9907 24.0654 26.9715 24.9286 28.4175L29.2498 35.6476H33.2179L28.3418 27.8458C27.5123 26.4895 26.8342 25.5311 26.3073 24.9706C25.7917 24.4102 25.1752 23.9786 24.4578 23.6759V23.5919C28.3138 22.5158 30.2418 20.173 30.2418 16.5636C30.2418 14.3665 29.5244 12.6571 28.0896 11.4353C26.6548 10.2135 24.6708 9.60254 22.1374 9.60254H20.1651V12.545H21.5826C23.2528 12.545 24.525 12.9261 25.3994 13.6884C26.2737 14.4506 26.7109 15.5099 26.7109 16.8662C26.7109 18.3235 26.2289 19.5004 25.2649 20.3972C24.3121 21.2939 23.0678 21.7423 21.5321 21.7423H20.1651V24.6877Z" fill="white"/>
<path d="M20.1758 9.59717L32.9134 9.59718L31.7057 12.5198H20.1758V9.59717Z" fill="white"/>
<defs>
<linearGradient id="paint0_linear_696_12124" x1="85.502" y1="10.1175" x2="112.384" y2="11.9834" gradientUnits="userSpaceOnUse">
<stop stop-color="#34F45F"/>
<stop offset="1" stop-color="#1E8E37"/>
</linearGradient>
<linearGradient id="paint1_linear_696_12124" x1="68.6719" y1="5.82971" x2="68.6719" y2="35.8297" gradientUnits="userSpaceOnUse">
<stop stop-color="#34F45F"/>
<stop offset="1" stop-color="#337E48"/>
</linearGradient>
<linearGradient id="paint2_linear_696_12124" x1="87.4468" y1="5.27197" x2="87.4468" y2="34.4207" gradientUnits="userSpaceOnUse">
<stop stop-color="#34F45F"/>
<stop offset="1" stop-color="#337E48"/>
</linearGradient>
<linearGradient id="paint3_linear_696_12124" x1="6.94434" y1="5.73663" x2="32.3063" y2="45.8931" gradientUnits="userSpaceOnUse">
<stop stop-color="#34F45F"/>
<stop offset="1" stop-color="#1E8E37"/>
</linearGradient>
</defs>
</svg>
