<svg width="76" height="76" viewBox="0 0 76 76" fill="none" xmlns="http://www.w3.org/2000/svg">
<circle cx="38" cy="38" r="38" fill="url(#paint0_linear_642_12359)"/>
<path fill-rule="evenodd" clip-rule="evenodd" d="M28.6312 15.877H23.5078V59.0082H28.6312V15.877ZM33.3833 40.8583C34.9093 40.9078 36.2303 41.3425 37.3466 42.1622C38.5346 43.0161 39.8433 44.6404 41.2726 47.035L48.4287 59.0082H55L46.9251 46.0883C45.5514 43.8422 44.4284 42.255 43.5559 41.3269C42.702 40.3987 41.681 39.684 40.493 39.1828V39.0436C46.8787 37.2616 50.0715 33.3819 50.0715 27.4046C50.0715 23.7662 48.8835 20.9354 46.5074 18.912C44.1313 16.8886 40.8457 15.877 36.6504 15.877H33.3833V20.7497H35.7316C38.4975 20.7497 40.6044 21.3809 42.0523 22.6432C43.5002 23.9055 44.2242 25.6597 44.2242 27.9058C44.2242 30.319 43.4259 32.2681 41.8295 33.7532C40.2517 35.2382 38.1912 35.9807 35.648 35.9807H33.3833V40.8583Z" fill="white"/>
<path d="M33.4062 15.8926L54.5 15.8926L52.5 20.7326H33.4062V15.8926Z" fill="white"/>
<path d="M35.8215 26.534L34.6875 24.554V24.29H34.8195C35.0315 24.29 35.2095 24.27 35.3535 24.23C35.5015 24.19 35.6175 24.124 35.7015 24.032C35.7855 23.94 35.8355 23.814 35.8515 23.654L35.8512 23.657L35.8455 23.27C35.8175 23.122 35.7615 23.002 35.6775 22.91C35.5935 22.814 35.4795 22.744 35.3355 22.7C35.1955 22.656 35.0235 22.634 34.8195 22.634H34.6875V22.25H36.8125V22.634H36.0375C36.1295 22.71 36.2055 22.8 36.2655 22.904C36.3255 23.008 36.3755 23.1212 36.3915 23.2612V23.654C36.3635 23.946 36.2515 24.174 36.0555 24.338C35.8635 24.498 35.6075 24.6 35.2875 24.644L36.4335 26.534H35.8215Z" fill="white"/>
<path d="M35.866 29.375L37 31.355V31.619H36.868C36.656 31.619 36.478 31.639 36.334 31.679C36.186 31.719 36.07 31.785 35.986 31.877C35.902 31.969 35.852 32.095 35.836 32.255L35.8363 32.252L35.842 32.639C35.87 32.787 35.926 32.907 36.01 32.999C36.094 33.095 36.208 33.165 36.352 33.209C36.492 33.253 36.664 33.275 36.868 33.275H37V33.659H34.875V33.275H35.65C35.558 33.199 35.482 33.109 35.422 33.005C35.362 32.901 35.312 32.7878 35.296 32.6478V32.255C35.324 31.963 35.436 31.735 35.632 31.571C35.824 31.411 36.08 31.309 36.4 31.265L35.254 29.375H35.866Z" fill="white"/>
<path d="M36.5349 26.7132L36.5428 24.4314L36.6748 24.2028L36.7891 24.2688C36.9727 24.3748 37.1369 24.4465 37.2816 24.4839C37.4298 24.5232 37.5632 24.5241 37.682 24.4864C37.8007 24.4487 37.907 24.3646 38.0009 24.234L37.9991 24.2365L38.1877 23.8985C38.2374 23.7563 38.2489 23.6244 38.2222 23.5027C38.1974 23.3776 38.1337 23.2599 38.031 23.1498C37.9318 23.0417 37.7938 22.9367 37.6171 22.8347L37.5028 22.7687L37.6948 22.4361L39.5351 23.4986L39.3431 23.8312L38.672 23.4437C38.7136 23.5555 38.7345 23.6714 38.7344 23.7915C38.7344 23.9116 38.7211 24.0346 38.6649 24.1639L38.4685 24.504C38.2983 24.7429 38.0873 24.8844 37.8355 24.9284C37.5893 24.971 37.3166 24.9313 37.0174 24.8094L37.0649 27.0192L36.5349 26.7132Z" fill="white"/>
<path d="M35.1529 29.1958L35.145 31.4775L35.013 31.7062L34.8987 31.6402C34.7151 31.5342 34.5509 31.4625 34.4062 31.4251C34.2581 31.3858 34.1246 31.3849 34.0059 31.4226C33.8871 31.4603 33.7808 31.5444 33.687 31.675L33.6887 31.6725L33.5001 32.0105C33.4504 32.1527 33.4389 32.2846 33.4656 32.4063C33.4904 32.5314 33.5541 32.649 33.6568 32.7592C33.7561 32.8673 33.894 32.9723 34.0707 33.0743L34.185 33.1403L33.993 33.4729L32.1527 32.4104L32.3447 32.0778L33.0159 32.4653C32.9742 32.3535 32.9534 32.2375 32.9534 32.1175C32.9535 31.9974 32.9668 31.8743 33.0229 31.7451L33.2193 31.405C33.3895 31.1661 33.6005 31.0246 33.8523 30.9806C34.0986 30.938 34.3713 30.9777 34.6704 31.0996L34.6229 28.8898L35.1529 29.1958Z" fill="white"/>
<path d="M37.063 27.225L38.2107 25.2529L38.4394 25.1209L38.5054 25.2352C38.6114 25.4188 38.7177 25.563 38.8243 25.6677C38.933 25.7759 39.0481 25.8433 39.1698 25.8701C39.2915 25.8968 39.4256 25.8771 39.5722 25.811L39.5694 25.8122L39.9017 25.6138C40.0159 25.5155 40.0918 25.407 40.1295 25.2883C40.1706 25.1675 40.1742 25.0338 40.1403 24.8871C40.1084 24.7438 40.0415 24.5839 39.9395 24.4072L39.8735 24.2929L40.2061 24.1009L41.2686 25.9412L40.936 26.1332L40.5485 25.462C40.5287 25.5797 40.4887 25.6905 40.4287 25.7945C40.3686 25.8985 40.2955 25.9984 40.1823 26.0822L39.8422 26.2786C39.5753 26.4004 39.3218 26.4174 39.0818 26.3296C38.8472 26.2434 38.6309 26.0726 38.4328 25.8175L37.369 27.755L37.063 27.225Z" fill="white"/>
<path d="M34.6249 28.684L33.4771 30.6561L33.2485 30.7881L33.1825 30.6738C33.0765 30.4902 32.9702 30.346 32.8635 30.2413C32.7549 30.1331 32.6397 30.0657 32.5181 30.0389C32.3964 30.0122 32.2623 30.0319 32.1157 30.098L32.1185 30.0968L31.7862 30.2952C31.672 30.3935 31.5961 30.502 31.5584 30.6207C31.5173 30.7415 31.5136 30.8752 31.5475 31.0219C31.5794 31.1652 31.6464 31.3251 31.7484 31.5018L31.8144 31.6161L31.4818 31.8081L30.4193 29.9678L30.7519 29.7758L31.1394 30.447C31.1592 30.3293 31.1991 30.2185 31.2592 30.1145C31.3193 30.0105 31.3923 29.9106 31.5056 29.8268L31.8457 29.6304C32.1126 29.5086 32.3661 29.4916 32.6061 29.5794C32.8406 29.6656 33.057 29.8363 33.2551 30.0915L34.3189 28.154L34.6249 28.684Z" fill="white"/>
<path d="M37.2643 27.9322L39.2443 26.7982H39.5083V26.9302C39.5083 27.1422 39.5283 27.3202 39.5683 27.4642C39.6083 27.6122 39.6743 27.7282 39.7663 27.8122C39.8583 27.8962 39.9843 27.9462 40.1443 27.9622L40.1413 27.9619L40.5283 27.9562C40.6763 27.9282 40.7963 27.8722 40.8883 27.7882C40.9843 27.7042 41.0543 27.5902 41.0983 27.4462C41.1423 27.3062 41.1643 27.1342 41.1643 26.9302V26.7982H41.5483V28.9232H41.1643V28.1482C41.0883 28.2402 40.9983 28.3162 40.8943 28.3762C40.7903 28.4362 40.6771 28.4862 40.5371 28.5022H40.1443C39.8523 28.4742 39.6243 28.3622 39.4603 28.1662C39.3003 27.9742 39.1983 27.7182 39.1543 27.3982L37.2643 28.5442V27.9322Z" fill="white"/>
<path d="M34.4233 27.9767L32.4433 29.1107H32.1793V28.9787C32.1793 28.7667 32.1593 28.5887 32.1193 28.4447C32.0793 28.2967 32.0133 28.1807 31.9213 28.0967C31.8293 28.0127 31.7033 27.9627 31.5433 27.9467L31.5463 27.9471L31.1593 27.9527C31.0113 27.9807 30.8913 28.0367 30.7993 28.1207C30.7033 28.2047 30.6333 28.3187 30.5893 28.4627C30.5453 28.6027 30.5233 28.7747 30.5233 28.9787L30.5233 29.1107H30.1393L30.1393 26.9857H30.5233L30.5233 27.7607C30.5993 27.6687 30.6893 27.5927 30.7933 27.5327C30.8973 27.4727 31.0106 27.4227 31.1506 27.4067H31.5433C31.8353 27.4347 32.0633 27.5467 32.2273 27.7427C32.3873 27.9347 32.4893 28.1907 32.5333 28.5107L34.4233 27.3647V27.9767Z" fill="white"/>
<path d="M37.0853 28.6455L39.367 28.6534L39.5956 28.7854L39.5296 28.8997C39.4236 29.0833 39.3519 29.2475 39.3146 29.3922C39.2752 29.5403 39.2744 29.6738 39.312 29.7926C39.3497 29.9113 39.4338 30.0176 39.5644 30.1115L39.562 30.1097L39.9 30.2983C40.0421 30.348 40.1741 30.3595 40.2957 30.3328C40.4209 30.308 40.5385 30.2443 40.6486 30.1416C40.7567 30.0423 40.8618 29.9044 40.9638 29.7277L41.0298 29.6134L41.3623 29.8054L40.2998 31.6457L39.9673 31.4537L40.3548 30.7825C40.2429 30.8242 40.127 30.845 40.0069 30.845C39.8869 30.845 39.7638 30.8316 39.6345 30.7755L39.2944 30.5791C39.0555 30.4089 38.9141 30.1979 38.87 29.9461C38.8275 29.6999 38.8671 29.4271 38.989 29.128L36.7793 29.1755L37.0853 28.6455Z" fill="white"/>
<path d="M34.6026 27.2635L32.3209 27.2556L32.0923 27.1236L32.1583 27.0093C32.2643 26.8257 32.3359 26.6615 32.3733 26.5168C32.4127 26.3686 32.4135 26.2352 32.3758 26.1164C32.3381 25.9977 32.254 25.8914 32.1235 25.7975L32.1259 25.7993L31.7879 25.6107C31.6457 25.561 31.5138 25.5495 31.3921 25.5762C31.267 25.601 31.1494 25.6647 31.0393 25.7674C30.9312 25.8666 30.8261 26.0046 30.7241 26.1813L30.6581 26.2956L30.3256 26.1036L31.3881 24.2633L31.7206 24.4553L31.3331 25.1265C31.4449 25.0848 31.5609 25.064 31.6809 25.064C31.801 25.064 31.9241 25.0774 32.0533 25.1335L32.3935 25.3299C32.6323 25.5001 32.7738 25.7111 32.8178 25.9629C32.8604 26.2091 32.8207 26.4818 32.6988 26.781L34.9086 26.7335L34.6026 27.2635Z" fill="white"/>
<path d="M36.5737 29.1736L38.5458 30.3213L38.6778 30.5499L38.5634 30.6159C38.3798 30.7219 38.2357 30.8282 38.131 30.9349C38.0228 31.0435 37.9554 31.1587 37.9286 31.2804C37.9019 31.402 37.9216 31.5361 37.9877 31.6827L37.9865 31.68L38.1849 32.0123C38.2831 32.1264 38.3916 32.2024 38.5104 32.24C38.6311 32.2812 38.7649 32.2848 38.9116 32.2509C39.0548 32.219 39.2148 32.1521 39.3914 32.0501L39.5058 31.9841L39.6978 32.3166L37.8575 33.3791L37.6655 33.0466L38.3366 32.6591C38.2189 32.6392 38.1081 32.5993 38.0042 32.5392C37.9002 32.4792 37.8003 32.4061 37.7164 32.2928L37.52 31.9527C37.3983 31.6858 37.3813 31.4324 37.469 31.1924C37.5553 30.9578 37.726 30.7415 37.9811 30.5433L36.0437 29.4796L36.5737 29.1736Z" fill="white"/>
<path d="M35.1146 26.7354L33.1426 25.5877L33.0106 25.3591L33.1249 25.2931C33.3085 25.1871 33.4526 25.0807 33.5573 24.9741C33.6655 24.8655 33.733 24.7503 33.7597 24.6286C33.7865 24.507 33.7668 24.3728 33.7006 24.2263L33.7019 24.229L33.5034 23.8967C33.4052 23.7825 33.2967 23.7066 33.1779 23.669C33.0572 23.6278 32.9235 23.6242 32.7768 23.6581C32.6335 23.69 32.4736 23.7569 32.2969 23.8589L32.1826 23.9249L31.9906 23.5924L33.8309 22.5299L34.0229 22.8624L33.3517 23.2499C33.4694 23.2697 33.5802 23.3097 33.6842 23.3698C33.7881 23.4298 33.888 23.5029 33.9719 23.6161L34.1683 23.9563C34.29 24.2232 34.307 24.4766 34.2193 24.7166C34.133 24.9512 33.9623 25.1675 33.7072 25.3656L35.6446 26.4294L35.1146 26.7354Z" fill="white"/>
<path d="M42 28C42 31.3137 39.3137 34 36 34C32.6863 34 30 31.3137 30 28C30 24.6863 32.6863 22 36 22C39.3137 22 42 24.6863 42 28ZM30.7807 28C30.7807 30.8825 33.1175 33.2193 36 33.2193C38.8825 33.2193 41.2193 30.8825 41.2193 28C41.2193 25.1175 38.8825 22.7807 36 22.7807C33.1175 22.7807 30.7807 25.1175 30.7807 28Z" fill="white"/>
<path d="M37.5 28C37.5 28.8975 36.7725 29.625 35.875 29.625C34.9775 29.625 34.25 28.8975 34.25 28C34.25 27.1025 34.9775 26.375 35.875 26.375C36.7725 26.375 37.5 27.1025 37.5 28ZM34.5223 28C34.5223 28.747 35.128 29.3527 35.875 29.3527C36.622 29.3527 37.2277 28.747 37.2277 28C37.2277 27.253 36.622 26.6473 35.875 26.6473C35.128 26.6473 34.5223 27.253 34.5223 28Z" fill="white"/>
<defs>
<linearGradient id="paint0_linear_642_12359" x1="11.5" y1="9.5" x2="53.5" y2="76" gradientUnits="userSpaceOnUse">
<stop stop-color="#34F45F"/>
<stop offset="1" stop-color="#1E8E37"/>
</linearGradient>
</defs>
</svg>
